<svg xmlns="http://www.w3.org/2000/svg" width="40" height="40" viewBox="0 0 40 40" fill="none">
<path d="M36.4076 7.58731L29.7409 0.922058L31.6257 5.70239L36.4076 7.58731Z" fill="#FBB040"/>
<path d="M0.922023 29.7418L7.58705 36.4088L5.7022 31.6267L0.922023 29.7418Z" fill="#FBB040"/>
<path d="M38.6872 18.6654V25.6301L39.9987 18.6654L38.6872 11.7007V18.6654Z" fill="#F39720"/>
<path d="M29.7409 36.4088L36.4076 29.7418L31.6257 31.6267L29.7409 36.4088Z" fill="#F39720"/>
<path d="M11.7004 38.6901L18.6648 40L25.6292 38.6901H18.6648H11.7004Z" fill="#F39720"/>
<path d="M37.3279 27.7616V21.5132L32.7536 29.5649L37.3279 27.7616Z" fill="#F39720"/>
<path d="M36.787 19.4174H29.4993L31.3893 28.9185L36.787 19.4174Z" fill="#FBB040"/>
<path d="M28.118 20.1931L20.1924 28.1189L30.0879 30.0889L28.118 20.1931Z" fill="#FBB040"/>
<path d="M28.9175 31.3903L19.4167 29.5003V36.7882L28.9175 31.3903Z" fill="#FBB040"/>
<path d="M27.7607 37.3291L29.5639 32.7546L21.5125 37.3291H27.7607Z" fill="#F39720"/>
<path d="M26.7656 19.4174H21.9106H19.4167V26.7665L26.7656 19.4174Z" fill="#FCDB95"/>
<path d="M27.7607 0H21.5125L29.5639 4.57449L27.7607 0Z" fill="#F9C851"/>
<path d="M30.0879 7.24023L20.1907 9.21021L28.118 17.1377L30.0879 7.24023Z" fill="#F9C851"/>
<path d="M31.3893 8.41064L29.4976 17.9118H36.787L31.3893 8.41064Z" fill="#FBB040"/>
<path d="M37.3279 15.8159V9.56748L32.7536 7.76422L37.3279 15.8159Z" fill="#FBB040"/>
<path d="M19.4167 10.5644V17.9118H26.7656L19.4167 10.5644Z" fill="#FCDB95"/>
<path d="M7.76394 32.7546L9.56714 37.3291H15.8154L7.76394 32.7546Z" fill="#FBB040"/>
<path d="M17.9112 36.7882V29.5003L8.41042 31.392L17.9112 36.7882Z" fill="#FBB040"/>
<path d="M9.20988 20.1931L7.23997 30.0889L17.1372 28.1189L9.20988 20.1931Z" fill="#F9C851"/>
<path d="M0 21.5132V27.7616L4.57434 29.5649L0 21.5132Z" fill="#F9C851"/>
<path d="M17.9112 19.4174H10.564L17.9112 26.7665V19.4174Z" fill="#FCDB95"/>
</svg>
